<?xml version="1.0" standalone="no"?><!DOCTYPE svg PUBLIC "-//W3C//DTD SVG 1.1//EN" "http://www.w3.org/Graphics/SVG/1.1/DTD/svg11.dtd"><svg class="icon" width="64px" height="64.00px" viewBox="0 0 1024 1024" version="1.1" xmlns="http://www.w3.org/2000/svg"><path fill="#333333" d="M962.063 499.269L564.248 318.134 801.979 208.85a37.563 37.563 0 0 0 21.807-37.941 37.853 37.853 0 0 0-28.74-33.152L549.878 78.134v-8.319c0-20.924-16.89-37.815-37.815-37.815s-37.815 16.89-37.815 37.815V311.58L62.063 499.269a37.966 37.966 0 0 0-22.185 34.412v420.504c0 20.924 16.89 37.815 37.815 37.815h868.614c20.924 0 37.815-16.89 37.815-37.815V533.68c0-14.748-8.572-28.236-22.059-34.412z m-290.546-313.74l-121.765 55.967v-85.462l121.765 29.495z m-264.58 730.84V658.976h206.597V916.37H406.937z m501.555 0H689.164V621.16c0-20.924-16.89-37.814-37.815-37.814H369.122c-20.925 0-37.815 16.89-37.815 37.815v295.21H115.508V558.008l396.555-180.63 396.555 180.63V916.37z"  /></svg>